<?xml version="1.0" encoding="utf-8"?>
<!-- Generator: Adobe Illustrator 16.0.0, SVG Export Plug-In . SVG Version: 6.00 Build 0)  -->
<!DOCTYPE svg PUBLIC "-//W3C//DTD SVG 1.1//EN" "http://www.w3.org/Graphics/SVG/1.1/DTD/svg11.dtd">
<svg version="1.1" id="Layer_1" xmlns="http://www.w3.org/2000/svg" xmlns:xlink="http://www.w3.org/1999/xlink" x="0px" y="0px"
	 width="980.176px" height="768px" viewBox="0 0 980.176 768" enable-background="new 0 0 980.176 768" xml:space="preserve">
<path fill="#A4ACB3" d="M0,626.762c0,20.018,16.333,36.512,36.51,36.512h907.156c20.018,0,36.51-16.334,36.51-36.512v-39.553H0
	V626.762z"/>
<path fill="#3D4042" d="M585.447,692.417c-6.084-8.167-16.334-37.312-16.334-37.312H409.301c0,0-10.089,29.145-16.334,37.312
	c-12.17,16.173-13.611,11.209-58.289,55.887c-13.932,13.933,0,19.696,0,19.696h151.647h5.443c0,0,113.695,0,151.646,0
	c4.805,0,13.932-5.765,0-19.696C599.059,703.946,597.617,708.43,585.447,692.417z"/>
<path fill="#C5D0D8" d="M585.447,687.293c-6.084-8.167-16.334-37.312-16.334-37.312H409.301c0,0-10.089,29.145-16.334,37.312
	c-12.17,16.173-13.611,11.529-58.289,55.886c-13.932,13.933,0,19.697,0,19.697h151.647h5.443c0,0,113.695,0,151.646,0
	c4.805,0,13.932-5.766,0-19.697C599.059,698.502,597.617,703.306,585.447,687.293z"/>
<path fill="#333333" d="M980.016,616.514c0,20.337-16.332,36.831-36.51,36.831H36.51C16.494,653.345,0,637.011,0,616.514V36.831
	C0,16.494,16.333,0,36.51,0h907.156c20.018,0,36.51,16.333,36.51,36.831L980.016,616.514L980.016,616.514z"/>
<path fill="#DFE9EE" d="M0,620.677c0,20.018,16.333,36.511,36.51,36.511h907.156c20.018,0,36.51-16.334,36.51-36.511v-39.553H0
	V620.677z"/>
<circle fill="#333333" cx="490.008" cy="618.275" r="18.255"/>
<polygon fill="#B9C1C6" points="571.996,657.188 578.082,672.721 396.17,682.328 406.739,657.188 "/>
<g>
	<defs>
		<rect id="SVGID_1_" x="34.269" y="39.873" width="911.319" height="512.747"/>
	</defs>
	<clipPath id="SVGID_2_">
		<use xlink:href="#SVGID_1_"  overflow="visible"/>
	</clipPath>
	<g transform="matrix(1 0 0 1 3.814697e-06 -3.814697e-06)" clip-path="url(#SVGID_2_)">
		
			<image overflow="visible" width="2824" height="1378" xlink:href="thumb_odalc.png"  transform="matrix(0.3724 0 0 0.3724 -35.7524 39.873)">
		</image>
	</g>
</g>
</svg>
